<svg width="14" height="15" viewBox="0 0 14 15" fill="none" xmlns="http://www.w3.org/2000/svg">
<path d="M12.6875 2.1499H1.3125C0.587617 2.1499 0 2.73752 0 3.4624V11.3374C0 12.0623 0.587617 12.6499 1.3125 12.6499H12.6875C13.4124 12.6499 14 12.0623 14 11.3374V3.4624C14 2.73752 13.4124 2.1499 12.6875 2.1499ZM12.6875 3.4624V4.57816C12.0744 5.07743 11.097 5.85378 9.00739 7.49C8.54689 7.85222 7.6347 8.72244 7 8.71229C6.36541 8.72255 5.45292 7.85209 4.99261 7.49C2.90336 5.85402 1.92568 5.07752 1.3125 4.57816V3.4624H12.6875ZM1.3125 11.3374V6.26235C1.93905 6.7614 2.82759 7.4617 4.1819 8.5222C4.77955 8.99265 5.82619 10.0312 7 10.0249C8.16804 10.0312 9.20142 9.00771 9.81786 8.52242C11.1721 7.46195 12.0609 6.76145 12.6875 6.26237V11.3374H1.3125Z" fill="#898989"/>
</svg>
