<svg width="38" height="38" viewBox="0 0 38 38" fill="none" xmlns="http://www.w3.org/2000/svg">
<path d="M20 33V31.6818H31.4023C31.8008 31.6818 32.1456 31.5563 32.4368 31.3052C32.728 31.0541 32.8736 30.7246 32.8736 30.3166V17.4643C32.8736 13.9805 31.6015 11.0852 29.0575 8.77841C26.5134 6.47159 23.4943 5.31818 20 5.31818C16.5057 5.31818 13.4866 6.47159 10.9425 8.77841C8.39847 11.0852 7.12644 13.9805 7.12644 17.4643V27.9156H6.48276C5.80843 27.9156 5.22605 27.688 4.73563 27.233C4.24521 26.7779 4 26.2051 4 25.5146V22.0308C4 21.4973 4.18391 21.0344 4.55172 20.642C4.91954 20.2497 5.34866 19.928 5.83908 19.6769V17.4172C5.83908 15.5027 6.22222 13.7294 6.98851 12.0974C7.75479 10.4654 8.78161 9.04518 10.069 7.83685C11.3563 6.62852 12.8582 5.68696 14.5747 5.01218C16.2912 4.33739 18.0996 4 20 4C21.9004 4 23.7088 4.33739 25.4253 5.01218C27.1418 5.68696 28.6437 6.62852 29.931 7.83685C31.2184 9.04518 32.2452 10.4654 33.0115 12.0974C33.7778 13.7294 34.1609 15.5027 34.1609 17.4172V19.6299C34.6207 19.8496 35.0421 20.132 35.4253 20.4773C35.8084 20.8225 36 21.2619 36 21.7955V25.7971C36 26.3306 35.8084 26.77 35.4253 27.1153C35.0421 27.4605 34.6207 27.743 34.1609 27.9627V30.3166C34.1609 31.0698 33.8927 31.7054 33.3563 32.2232C32.8199 32.7411 32.1686 33 31.4023 33H20ZM15.4023 21.1364C15.0651 21.1364 14.7663 21.0187 14.5057 20.7833C14.2452 20.5479 14.1149 20.2576 14.1149 19.9123C14.1149 19.5671 14.2452 19.2689 14.5057 19.0179C14.7663 18.7668 15.0651 18.6412 15.4023 18.6412C15.7395 18.6412 16.0383 18.7668 16.2989 19.0179C16.5594 19.2689 16.6897 19.5671 16.6897 19.9123C16.6897 20.2576 16.5594 20.5479 16.2989 20.7833C16.0383 21.0187 15.7395 21.1364 15.4023 21.1364ZM24.5977 21.1364C24.2605 21.1364 23.9617 21.0187 23.7011 20.7833C23.4406 20.5479 23.3103 20.2576 23.3103 19.9123C23.3103 19.5671 23.4406 19.2689 23.7011 19.0179C23.9617 18.7668 24.2605 18.6412 24.5977 18.6412C24.9349 18.6412 25.2337 18.7668 25.4943 19.0179C25.7548 19.2689 25.8851 19.5671 25.8851 19.9123C25.8851 20.2576 25.7548 20.5479 25.4943 20.7833C25.2337 21.0187 24.9349 21.1364 24.5977 21.1364ZM10.6667 18.1234C10.5134 15.4556 11.3716 13.188 13.2414 11.3206C15.1111 9.45319 17.3946 8.51948 20.092 8.51948C22.3602 8.51948 24.3755 9.20211 26.1379 10.5674C27.9004 11.9326 28.9808 13.7451 29.3793 16.0049C27.0498 15.9735 24.8812 15.3772 22.8736 14.2159C20.8659 13.0547 19.3257 11.4226 18.2529 9.31981C17.8238 11.3912 16.9349 13.1959 15.5862 14.7338C14.2375 16.2716 12.5977 17.4015 10.6667 18.1234Z" fill="black"/>
</svg>
