<svg width="34" height="34" viewBox="0 0 34 34" fill="none" xmlns="http://www.w3.org/2000/svg">
<path d="M17.0083 6.40785C19.5044 6.40785 21.8594 6.945 24.0732 8.0193C26.2867 9.09361 28.1328 10.6416 29.6113 12.6631C29.7584 12.8482 29.8047 13.0167 29.7501 13.1685C29.6956 13.3201 29.6021 13.4458 29.4696 13.5457C29.3369 13.6456 29.1877 13.6901 29.0219 13.6792C28.8562 13.6686 28.7111 13.5769 28.5867 13.4041C27.2699 11.5442 25.5859 10.1221 23.5348 9.13776C21.484 8.15342 19.3085 7.66124 17.0083 7.66124C14.718 7.66124 12.5649 8.1579 10.549 9.15122C8.53282 10.1448 6.85914 11.5624 5.52795 13.4041C5.39525 13.5984 5.24355 13.7029 5.07284 13.7175C4.90214 13.7319 4.75043 13.6847 4.61774 13.5758C4.48434 13.4759 4.40335 13.351 4.37478 13.2011C4.34621 13.0512 4.38907 12.8955 4.50334 12.734C5.97644 10.7452 7.80807 9.19372 9.99824 8.07951C12.1886 6.96507 14.5253 6.40785 17.0083 6.40785ZM17.009 9.73701C20.1778 9.73701 22.9005 10.793 25.1771 12.905C27.4539 15.017 28.5923 17.6335 28.5923 20.7544C28.5923 21.9156 28.1812 22.8852 27.3588 23.6632C26.5364 24.4412 25.5346 24.8302 24.3533 24.8302C23.1763 24.8302 22.1637 24.4412 21.3156 23.6632C20.4673 22.8852 20.0431 21.9156 20.0431 20.7544C20.0431 19.9571 19.7473 19.2837 19.1556 18.7343C18.5636 18.1848 17.857 17.9101 17.0355 17.9101C16.2068 17.9101 15.4937 18.1837 14.8964 18.7307C14.2992 19.2776 14.0007 19.9521 14.0007 20.7544C14.0007 23.0719 14.6886 25.007 16.0644 26.5599C17.4402 28.1128 19.2024 29.1962 21.3511 29.8101C21.5411 29.8724 21.6704 29.9763 21.7389 30.1218C21.8071 30.2672 21.8176 30.4231 21.7704 30.5893C21.7232 30.7347 21.6378 30.8619 21.5143 30.9707C21.3908 31.0798 21.2274 31.1107 21.0242 31.0635C18.6047 30.4496 16.6204 29.2344 15.0713 27.4177C13.522 25.6008 12.7473 23.3797 12.7473 20.7544C12.7473 19.5921 13.1678 18.6186 14.0088 17.834C14.8496 17.0494 15.8589 16.6571 17.0366 16.6571C18.2141 16.6571 19.2184 17.0494 20.0495 17.834C20.8808 18.6186 21.2965 19.5921 21.2965 20.7544C21.2965 21.5567 21.5993 22.2313 22.205 22.7781C22.8106 23.3252 23.5253 23.5987 24.3491 23.5987C25.1726 23.5987 25.8768 23.324 26.4617 22.7746C27.0465 22.2252 27.3389 21.5518 27.3389 20.7544C27.3389 17.9924 26.3251 15.671 24.2974 13.7901C22.2694 11.909 19.8479 10.9684 17.0327 10.9684C14.2175 10.9684 11.7998 11.9103 9.77937 13.794C7.75873 15.6777 6.74841 17.9905 6.74841 20.7325C6.74841 21.3039 6.80838 22.018 6.92832 22.8748C7.04803 23.7314 7.30409 24.7264 7.69651 25.8597C7.75814 26.0451 7.75448 26.2091 7.68553 26.3517C7.61659 26.4943 7.49676 26.601 7.32605 26.6718C7.15534 26.7427 6.99278 26.741 6.83837 26.6669C6.68395 26.5925 6.57581 26.4707 6.51395 26.3014C6.15081 25.3532 5.89026 24.4291 5.7323 23.5293C5.57411 22.6293 5.49501 21.7043 5.49501 20.7544C5.49501 17.6335 6.62764 15.017 8.89289 12.905C11.1581 10.793 13.8635 9.73701 17.009 9.73701ZM17.0355 2.93701C18.5346 2.93701 19.9986 3.12 21.4276 3.48597C22.8565 3.85194 24.2386 4.37729 25.5738 5.06201C25.7771 5.1711 25.8942 5.30143 25.9251 5.45301C25.956 5.6046 25.9406 5.75405 25.8787 5.90139C25.8171 6.04848 25.7104 6.16017 25.5586 6.23643C25.407 6.31269 25.2358 6.30089 25.045 6.20101C23.8028 5.53612 22.508 5.03486 21.1605 4.69722C19.813 4.35935 18.4358 4.19041 17.0288 4.19041C15.6457 4.19041 14.2885 4.35887 12.9573 4.6958C11.6259 5.03274 10.3445 5.53447 9.11318 6.20101C8.96962 6.29168 8.81473 6.3121 8.64851 6.26228C8.48229 6.21223 8.36105 6.10645 8.28478 5.94495C8.20852 5.78321 8.18727 5.63246 8.22103 5.49268C8.25456 5.35267 8.35207 5.23272 8.51357 5.13284C9.82682 4.41554 11.2036 3.87024 12.6439 3.49695C14.0841 3.12366 15.548 2.93701 17.0355 2.93701ZM17.0362 13.1862C19.2134 13.1862 21.0816 13.915 22.6409 15.3725C24.2002 16.83 24.9798 18.624 24.9798 20.7544C24.9798 20.9424 24.9223 21.0938 24.8074 21.2088C24.6926 21.3236 24.5413 21.3809 24.3533 21.3809C24.1916 21.3809 24.0467 21.3236 23.9188 21.2088C23.7906 21.0938 23.7264 20.9424 23.7264 20.7544C23.7264 18.9654 23.0646 17.4656 21.741 16.2551C20.4171 15.0446 18.8487 14.4393 17.0359 14.4393C15.223 14.4393 13.6619 15.0446 12.3524 16.2551C11.0429 17.4656 10.3882 18.9651 10.3882 20.7534C10.3882 22.6848 10.7232 24.3197 11.3933 25.6582C12.0636 26.9967 13.0363 28.3472 14.3113 29.7095C14.4529 29.8529 14.5169 30.0076 14.5032 30.1738C14.4895 30.3401 14.4256 30.4804 14.3113 30.5949C14.1878 30.7184 14.0429 30.7824 13.8767 30.7869C13.7105 30.7914 13.561 30.7274 13.4283 30.5949C12.0627 29.1492 11.0057 27.6626 10.2575 26.1349C9.50902 24.6075 9.13478 22.8139 9.13478 20.7541C9.13478 18.6239 9.90734 16.83 11.4524 15.3725C12.9978 13.915 14.8591 13.1862 17.0362 13.1862ZM16.9838 20.1279C17.1708 20.1279 17.3224 20.1906 17.4386 20.316C17.555 20.4411 17.6132 20.5873 17.6132 20.7544C17.6132 22.5531 18.2574 24.0281 19.5459 25.1794C20.8346 26.3304 22.3426 26.906 24.07 26.906C24.257 26.906 24.4804 26.8941 24.7401 26.8705C24.9998 26.8469 25.2667 26.8115 25.5408 26.7643C25.7172 26.7263 25.8684 26.7513 25.9945 26.8394C26.1209 26.9274 26.2076 27.065 26.2548 27.252C26.3021 27.4184 26.2711 27.564 26.1621 27.6887C26.0532 27.8136 25.9134 27.8996 25.7427 27.9468C25.3994 28.0375 25.0729 28.0956 24.7631 28.1211C24.4536 28.1466 24.2225 28.1593 24.07 28.1593C21.9958 28.1593 20.1922 27.4574 18.6594 26.0535C17.1263 24.6498 16.3598 22.8834 16.3598 20.7544C16.3598 20.5873 16.417 20.4411 16.5316 20.316C16.6458 20.1906 16.7966 20.1279 16.9838 20.1279Z" fill="black"/>
</svg>
