<svg width="46" height="45" viewBox="0 0 46 45" fill="none" xmlns="http://www.w3.org/2000/svg">
<path d="M20.9844 25.7344L29.8906 16.875L28.9531 15.9375L20.9844 23.9063L17 19.9219L16.0625 20.8594L20.9844 25.7344ZM4.25 35.625V34.3125H41.75V35.625H4.25ZM9.5 32.4375C8.6875 32.4375 8.01562 32.1719 7.48438 31.6406C6.95312 31.1094 6.6875 30.4375 6.6875 29.625V12C6.6875 11.1875 6.95312 10.5156 7.48438 9.98438C8.01562 9.45313 8.6875 9.1875 9.5 9.1875H36.5C37.3125 9.1875 37.9844 9.45313 38.5156 9.98438C39.0469 10.5156 39.3125 11.1875 39.3125 12V29.625C39.3125 30.4375 39.0469 31.1094 38.5156 31.6406C37.9844 32.1719 37.3125 32.4375 36.5 32.4375H9.5ZM9.5 31.125H36.5C36.875 31.125 37.2188 30.9688 37.5312 30.6563C37.8438 30.3438 38 30 38 29.625V12C38 11.625 37.8438 11.2813 37.5312 10.9688C37.2188 10.6563 36.875 10.5 36.5 10.5H9.5C9.125 10.5 8.78125 10.6563 8.46875 10.9688C8.15625 11.2813 8 11.625 8 12V29.625C8 30 8.15625 30.3438 8.46875 30.6563C8.78125 30.9688 9.125 31.125 9.5 31.125Z" fill="#24E03A"/>
</svg>
