<svg width="14" height="15" viewBox="0 0 14 15" fill="none" xmlns="http://www.w3.org/2000/svg">
<path d="M7.00283 4.35537C5.26377 4.35537 3.86103 5.75811 3.86103 7.49717C3.86103 9.23623 5.26377 10.639 7.00283 10.639C8.74189 10.639 10.1446 9.23623 10.1446 7.49717C10.1446 5.75811 8.74189 4.35537 7.00283 4.35537ZM7.00283 9.53975C5.879 9.53975 4.96025 8.62373 4.96025 7.49717C4.96025 6.37061 5.87627 5.45459 7.00283 5.45459C8.12939 5.45459 9.04541 6.37061 9.04541 7.49717C9.04541 8.62373 8.12666 9.53975 7.00283 9.53975ZM11.006 4.22686C11.006 4.63428 10.6778 4.95967 10.2731 4.95967C9.86572 4.95967 9.54033 4.63154 9.54033 4.22686C9.54033 3.82217 9.86846 3.49404 10.2731 3.49404C10.6778 3.49404 11.006 3.82217 11.006 4.22686ZM13.0868 4.97061C13.0403 3.98896 12.8161 3.11943 12.097 2.40303C11.3806 1.68662 10.511 1.4624 9.5294 1.41318C8.51768 1.35576 5.48525 1.35576 4.47354 1.41318C3.49463 1.45967 2.6251 1.68389 1.90596 2.40029C1.18682 3.1167 0.965332 3.98623 0.916113 4.96787C0.858691 5.97959 0.858691 9.01201 0.916113 10.0237C0.962598 11.0054 1.18682 11.8749 1.90596 12.5913C2.6251 13.3077 3.49189 13.5319 4.47354 13.5812C5.48525 13.6386 8.51768 13.6386 9.5294 13.5812C10.511 13.5347 11.3806 13.3104 12.097 12.5913C12.8134 11.8749 13.0376 11.0054 13.0868 10.0237C13.1442 9.01201 13.1442 5.98232 13.0868 4.97061ZM11.7798 11.1093C11.5665 11.6452 11.1536 12.0581 10.6149 12.2741C9.8083 12.594 7.89424 12.5202 7.00283 12.5202C6.11143 12.5202 4.19463 12.5913 3.39072 12.2741C2.85479 12.0608 2.44189 11.6479 2.22588 11.1093C1.90596 10.3026 1.97979 8.38857 1.97979 7.49717C1.97979 6.60576 1.90869 4.68896 2.22588 3.88506C2.43916 3.34912 2.85205 2.93623 3.39072 2.72021C4.19736 2.40029 6.11143 2.47412 7.00283 2.47412C7.89424 2.47412 9.81104 2.40303 10.6149 2.72021C11.1509 2.9335 11.5638 3.34639 11.7798 3.88506C12.0997 4.6917 12.0259 6.60576 12.0259 7.49717C12.0259 8.38857 12.0997 10.3054 11.7798 11.1093Z" fill="#898989"/>
</svg>
