<svg width="14" height="15" viewBox="0 0 14 15" fill="none" xmlns="http://www.w3.org/2000/svg">
<path d="M3.61703 12.7502H1.07734V4.5717H3.61703V12.7502ZM2.34582 3.45607C1.53371 3.45607 0.875 2.78342 0.875 1.97131C0.875 1.58122 1.02996 1.20711 1.30579 0.931282C1.58163 0.655449 1.95573 0.500488 2.34582 0.500488C2.73591 0.500488 3.11001 0.655449 3.38585 0.931282C3.66168 1.20711 3.81664 1.58122 3.81664 1.97131C3.81664 2.78342 3.15766 3.45607 2.34582 3.45607ZM13.1223 12.7502H10.588V8.76896C10.588 7.82014 10.5689 6.60334 9.26762 6.60334C7.94719 6.60334 7.74484 7.6342 7.74484 8.70061V12.7502H5.20789V4.5717H7.64367V5.68732H7.67922C8.01828 5.04475 8.84652 4.36662 10.0822 4.36662C12.6525 4.36662 13.125 6.0592 13.125 8.25764V12.7502H13.1223Z" fill="#898989"/>
</svg>
