<svg width="41" height="41" viewBox="0 0 41 41" fill="none" xmlns="http://www.w3.org/2000/svg">
<path d="M18.7499 25.0271L26.6666 16.9125L25.8333 16.0583L18.7499 23.3188L15.1666 19.6458L14.3333 20.5L18.7499 25.0271ZM20.4999 35.2771C17.3055 34.2521 14.6458 32.2306 12.5208 29.2125C10.3958 26.1944 9.33325 22.7778 9.33325 18.9625V10.0792L20.4999 5.80833L31.6666 10.0792V18.9625C31.6666 22.7778 30.6041 26.1944 28.4791 29.2125C26.3541 32.2306 23.6944 34.2521 20.4999 35.2771ZM20.4999 33.9958C23.3888 33.0563 25.7777 31.1771 27.6666 28.3583C29.5555 25.5396 30.4999 22.4076 30.4999 18.9625V10.8906L20.4999 7.08958L10.4999 10.8906V18.9625C10.4999 22.4076 11.4444 25.5396 13.3333 28.3583C15.2221 31.1771 17.611 33.0563 20.4999 33.9958Z" fill="#24E03A"/>
</svg>
