<svg width="14" height="15" viewBox="0 0 14 15" fill="none" xmlns="http://www.w3.org/2000/svg">
<path d="M11.2902 3.05498C10.1445 1.90654 8.61875 1.2749 6.99727 1.2749C3.65039 1.2749 0.926953 3.99834 0.926953 7.34521C0.926953 8.41436 1.20586 9.45889 1.73633 10.3804L0.875 13.5249L4.09336 12.68C4.9793 13.164 5.97734 13.4183 6.99453 13.4183H6.99727C10.3414 13.4183 13.125 10.6948 13.125 7.34795C13.125 5.72647 12.4359 4.20342 11.2902 3.05498ZM6.99727 12.3956C6.08945 12.3956 5.20078 12.1522 4.42695 11.6929L4.24375 11.5835L2.33516 12.0839L2.84375 10.2218L2.72344 10.0304C2.21758 9.22647 1.95234 8.29951 1.95234 7.34521C1.95234 4.56436 4.21641 2.30029 7 2.30029C8.34805 2.30029 9.61406 2.82529 10.5656 3.77959C11.5172 4.73389 12.1023 5.9999 12.0996 7.34795C12.0996 10.1315 9.77812 12.3956 6.99727 12.3956ZM9.76445 8.6167C9.61406 8.54014 8.86758 8.17373 8.72813 8.12451C8.58867 8.07256 8.4875 8.04795 8.38633 8.20107C8.28516 8.3542 7.99531 8.69326 7.90508 8.79717C7.81758 8.89834 7.72734 8.91201 7.57695 8.83545C6.68555 8.38975 6.10039 8.03975 5.5125 7.03076C5.35664 6.76279 5.66836 6.78193 5.9582 6.20225C6.00742 6.10107 5.98281 6.01357 5.94453 5.93701C5.90625 5.86045 5.60273 5.11397 5.47695 4.81045C5.35391 4.51514 5.22813 4.55615 5.13516 4.55068C5.04766 4.54521 4.94648 4.54522 4.84531 4.54522C4.74414 4.54522 4.58008 4.5835 4.44062 4.73389C4.30117 4.88701 3.91016 5.25342 3.91016 5.9999C3.91016 6.74639 4.4543 7.46826 4.52813 7.56943C4.60469 7.67061 5.59727 9.20186 7.12031 9.86084C8.08281 10.2765 8.46016 10.312 8.94141 10.2409C9.23398 10.1972 9.83828 9.87451 9.96406 9.51904C10.0898 9.16357 10.0898 8.86006 10.0516 8.79717C10.016 8.72881 9.91484 8.69053 9.76445 8.6167Z" fill="#898989"/>
</svg>
